<svg width="152" height="48" viewBox="0 0 160 47" fill="none"><path opacity="0.3" d="M39.8795 11.5119L29.908 17.2678L19.9429 23.0237L9.97146 28.7797L0 34.5356V11.5119L19.9429 0L39.8795 11.5119Z" fill="#42D3FF"></path><path opacity="0.6" d="M39.8795 34.5358L19.9429 46.0477L0 34.5358L9.97146 28.7799L19.9429 23.0239L29.908 28.7799L39.8795 34.5358Z" fill="#42D3FF"></path><path d="M39.8819 11.5122V34.5359L29.9104 28.78L19.9453 23.0241L29.9104 17.2681L39.8819 11.5122Z" fill="#42D3FF"></path><path d="M68.9666 31.3121C66.7027 31.3121 64.8592 30.6173 63.4361 29.2277C62.0131 27.8382 61.303 25.9876 61.3061 23.676V23.2774C61.2812 21.8396 61.5889 20.4155 62.2053 19.1162C62.759 17.9452 63.6447 16.9627 64.7522 16.2909C65.8901 15.6191 67.1919 15.2758 68.5132 15.299C70.6249 15.299 72.2874 15.9648 73.5005 17.2966C74.7136 18.6284 75.3222 20.517 75.3262 22.9625V24.6467H65.4916C65.6255 25.6559 66.0277 26.4673 66.6981 27.081C67.3686 27.6946 68.2175 27.9989 69.245 27.9939C70.8344 27.9939 72.0764 27.4182 72.971 26.267L74.9976 28.537C74.3566 29.4302 73.4897 30.137 72.4856 30.5849C71.3803 31.083 70.1788 31.3313 68.9666 31.3121ZM68.4965 18.6248C68.1243 18.6117 67.7536 18.6792 67.4099 18.8226C67.0662 18.9659 66.7575 19.1818 66.5049 19.4555C65.9978 20.0093 65.6721 20.8025 65.5281 21.8351H71.264V21.5049C71.2457 20.592 70.9987 19.882 70.523 19.3749C70.0473 18.8677 69.3718 18.6177 68.4965 18.6248Z" fill="white"></path><path d="M82.3707 20.1939L84.9692 15.584H89.3814L84.986 23.1486L89.561 31.0236H85.1366L82.3813 26.1717L79.6427 31.0236H75.2031L79.7842 23.1455L75.4116 15.584H79.8238L82.3707 20.1939Z" fill="white"></path><path d="M104.091 23.4479C104.091 25.8274 103.551 27.7328 102.471 29.1639C101.391 30.5951 99.9327 31.3112 98.0968 31.3122C96.5378 31.3122 95.277 30.7696 94.3145 29.6843V36.9568H90.1914V15.5836H94.0148L94.1578 17.105C95.1579 15.9061 96.4613 15.3066 98.0679 15.3066C99.9707 15.3066 101.451 16.0106 102.507 17.4184C103.564 18.8262 104.092 20.7671 104.091 23.241V23.4479ZM99.9667 23.1436C99.9667 21.7073 99.7131 20.5987 99.2059 19.8177C98.6988 19.0367 97.9594 18.6467 96.9877 18.6477C95.6924 18.6477 94.8023 19.1427 94.3175 20.1327V26.4588C94.8246 27.4782 95.7238 27.9853 97.015 27.9803C98.9827 27.9803 99.9667 26.3696 99.9667 23.1482V23.1436Z" fill="white"></path><path d="M109.832 31.0234H105.688V9.10547H109.827L109.832 31.0234Z" fill="white"></path><path d="M111.416 23.1636C111.39 21.7479 111.692 20.3454 112.3 19.0664C112.854 17.9066 113.741 16.938 114.848 16.2837C115.956 15.6285 117.242 15.3003 118.708 15.2993C120.792 15.2993 122.493 15.9368 123.811 17.2118C125.128 18.4867 125.863 20.2181 126.015 22.406L126.044 23.4619C126.044 25.8323 125.385 27.733 124.066 29.1642C122.748 30.5954 120.973 31.3115 118.741 31.3125C116.515 31.3125 114.74 30.5989 113.416 29.1718C112.093 27.7447 111.429 25.8034 111.426 23.3477L111.416 23.1636ZM115.54 23.4558C115.54 24.9245 115.816 26.0463 116.368 26.8212C116.92 27.5961 117.709 27.9846 118.737 27.9866C119.735 27.9866 120.515 27.6032 121.077 26.8364C121.639 26.0696 121.92 24.8428 121.92 23.156C121.92 21.7168 121.639 20.601 121.077 19.8089C120.515 19.0167 119.725 18.6216 118.708 18.6237C117.7 18.6237 116.92 19.0167 116.368 19.8028C115.816 20.5889 115.54 21.8065 115.54 23.4558Z" fill="white"></path><path d="M136.091 19.4603C135.599 19.3894 135.104 19.3513 134.607 19.3462C133.046 19.3462 132.024 19.8741 131.539 20.93V31.0232H127.414V15.5806H131.311L131.425 17.4231C132.252 16.0031 133.399 15.2931 134.865 15.2931C135.3 15.2902 135.732 15.3528 136.149 15.4787L136.091 19.4603Z" fill="white"></path><path d="M143.744 31.3121C141.48 31.3121 139.637 30.6173 138.213 29.2277C136.79 27.8382 136.08 25.9876 136.083 23.676V23.2774C136.059 21.8396 136.366 20.4155 136.983 19.1162C137.536 17.9452 138.422 16.9627 139.529 16.2909C140.667 15.6191 141.969 15.2758 143.291 15.299C145.402 15.299 147.065 15.9648 148.278 17.2966C149.491 18.6284 150.099 20.517 150.103 22.9625V24.6467H140.27C140.404 25.6559 140.807 26.4673 141.477 27.081C142.147 27.6946 142.996 27.9989 144.024 27.9939C145.613 27.9939 146.855 27.4182 147.75 26.267L149.776 28.537C149.135 29.4302 148.268 30.137 147.264 30.5849C146.159 31.0833 144.957 31.3316 143.744 31.3121ZM143.274 18.6248C142.902 18.6132 142.533 18.6818 142.19 18.8259C141.847 18.9701 141.54 19.1864 141.288 19.4601C140.781 20.0139 140.455 20.8071 140.31 21.8396H146.047V21.5095C146.029 20.5966 145.782 19.8866 145.306 19.3795C144.831 18.8723 144.153 18.6208 143.274 18.6248Z" fill="white"></path><path d="M159.944 19.4603C159.452 19.3894 158.956 19.3513 158.459 19.3462C156.898 19.3462 155.875 19.8741 155.39 20.93V31.0233H151.266V15.5806H155.162L155.276 17.4231C156.104 16.0031 157.25 15.2931 158.716 15.2931C159.151 15.2901 159.584 15.3527 160 15.4787L159.944 19.4603Z" fill="white"></path></svg>