<svg width="203" height="26" viewBox="0 0 203 26" fill="none" xmlns="http://www.w3.org/2000/svg">
<path d="M12.6935 0.866394L23.3512 7.01966V19.3262L12.6935 25.4795L2.0357 19.3262V7.01966L12.6935 0.866394Z" fill="#065E7C"/>
<path d="M37.9497 20.8664H34.953V8.69361C34.953 7.84627 35.1184 7.13326 35.449 6.55459C35.7866 5.96902 36.2585 5.52813 36.8647 5.23191C37.4778 4.92879 38.2046 4.77723 39.0451 4.77723C39.3206 4.77723 39.5858 4.7979 39.8407 4.83924C40.0956 4.87368 40.3436 4.91846 40.5847 4.97357L40.5537 7.21593C40.4229 7.18148 40.2851 7.15737 40.1404 7.14359C39.9957 7.12981 39.827 7.12292 39.6341 7.12292C39.2758 7.12292 38.9693 7.18493 38.7144 7.30893C38.4664 7.42604 38.2769 7.60171 38.1461 7.83593C38.0152 8.07016 37.9497 8.35605 37.9497 8.69361V20.8664ZM40.1817 9.68562V11.7936H33.2893V9.68562H40.1817ZM41.2667 15.3897V15.1727C41.2667 14.3529 41.3839 13.5985 41.6181 12.9096C41.8523 12.2139 42.1933 11.6111 42.6411 11.1013C43.0889 10.5915 43.64 10.1954 44.2944 9.91295C44.9489 9.62362 45.6998 9.47895 46.5471 9.47895C47.3945 9.47895 48.1488 9.62362 48.8102 9.91295C49.4715 10.1954 50.0261 10.5915 50.4738 11.1013C50.9285 11.6111 51.273 12.2139 51.5072 12.9096C51.7414 13.5985 51.8585 14.3529 51.8585 15.1727V15.3897C51.8585 16.2026 51.7414 16.9569 51.5072 17.6527C51.273 18.3416 50.9285 18.9444 50.4738 19.461C50.0261 19.9708 49.4749 20.3669 48.8205 20.6494C48.166 20.9318 47.4151 21.0731 46.5678 21.0731C45.7205 21.0731 44.9661 20.9318 44.3048 20.6494C43.6503 20.3669 43.0958 19.9708 42.6411 19.461C42.1933 18.9444 41.8523 18.3416 41.6181 17.6527C41.3839 16.9569 41.2667 16.2026 41.2667 15.3897ZM44.2428 15.1727V15.3897C44.2428 15.8581 44.2841 16.2956 44.3668 16.702C44.4494 17.1085 44.5803 17.4667 44.7594 17.7767C44.9455 18.0798 45.1866 18.3175 45.4828 18.4897C45.779 18.6619 46.1407 18.748 46.5678 18.748C46.9811 18.748 47.3359 18.6619 47.6321 18.4897C47.9284 18.3175 48.166 18.0798 48.3452 17.7767C48.5243 17.4667 48.6552 17.1085 48.7378 16.702C48.8274 16.2956 48.8722 15.8581 48.8722 15.3897V15.1727C48.8722 14.718 48.8274 14.2909 48.7378 13.8913C48.6552 13.4849 48.5208 13.1267 48.3348 12.8166C48.1557 12.4998 47.918 12.2518 47.6218 12.0726C47.3256 11.8935 46.9674 11.804 46.5471 11.804C46.1269 11.804 45.7687 11.8935 45.4725 12.0726C45.1831 12.2518 44.9455 12.4998 44.7594 12.8166C44.5803 13.1267 44.4494 13.4849 44.3668 13.8913C44.2841 14.2909 44.2428 14.718 44.2428 15.1727ZM53.2122 15.3897V15.1727C53.2122 14.3529 53.3293 13.5985 53.5635 12.9096C53.7978 12.2139 54.1388 11.6111 54.5865 11.1013C55.0343 10.5915 55.5854 10.1954 56.2399 9.91295C56.8943 9.62362 57.6452 9.47895 58.4926 9.47895C59.3399 9.47895 60.0943 9.62362 60.7556 9.91295C61.4169 10.1954 61.9715 10.5915 62.4193 11.1013C62.874 11.6111 63.2184 12.2139 63.4526 12.9096C63.6869 13.5985 63.804 14.3529 63.804 15.1727V15.3897C63.804 16.2026 63.6869 16.9569 63.4526 17.6527C63.2184 18.3416 62.874 18.9444 62.4193 19.461C61.9715 19.9708 61.4204 20.3669 60.7659 20.6494C60.1115 20.9318 59.3606 21.0731 58.5133 21.0731C57.6659 21.0731 56.9116 20.9318 56.2502 20.6494C55.5958 20.3669 55.0412 19.9708 54.5865 19.461C54.1388 18.9444 53.7978 18.3416 53.5635 17.6527C53.3293 16.9569 53.2122 16.2026 53.2122 15.3897ZM56.1882 15.1727V15.3897C56.1882 15.8581 56.2296 16.2956 56.3122 16.702C56.3949 17.1085 56.5258 17.4667 56.7049 17.7767C56.8909 18.0798 57.132 18.3175 57.4282 18.4897C57.7245 18.6619 58.0861 18.748 58.5133 18.748C58.9266 18.748 59.2814 18.6619 59.5776 18.4897C59.8738 18.3175 60.1115 18.0798 60.2906 17.7767C60.4697 17.4667 60.6006 17.1085 60.6833 16.702C60.7728 16.2956 60.8176 15.8581 60.8176 15.3897V15.1727C60.8176 14.718 60.7728 14.2909 60.6833 13.8913C60.6006 13.4849 60.4663 13.1267 60.2803 12.8166C60.1012 12.4998 59.8635 12.2518 59.5673 12.0726C59.271 11.8935 58.9128 11.804 58.4926 11.804C58.0724 11.804 57.7141 11.8935 57.4179 12.0726C57.1286 12.2518 56.8909 12.4998 56.7049 12.8166C56.5258 13.1267 56.3949 13.4849 56.3122 13.8913C56.2296 14.2909 56.1882 14.718 56.1882 15.1727ZM72.2361 18.4277V4.99424H75.2328V20.8664H72.5357L72.2361 18.4277ZM65.168 15.4103V15.1933C65.168 14.3391 65.2644 13.5641 65.4573 12.8683C65.6502 12.1656 65.9327 11.5629 66.3047 11.06C66.6767 10.5571 67.1348 10.1678 67.679 9.89229C68.2232 9.61673 68.8432 9.47895 69.539 9.47895C70.1935 9.47895 70.7653 9.61673 71.2544 9.89229C71.7504 10.1678 72.1706 10.5605 72.5151 11.0703C72.8664 11.5732 73.1488 12.1691 73.3624 12.858C73.576 13.54 73.731 14.2874 73.8274 15.1003V15.5757C73.731 16.3541 73.576 17.0775 73.3624 17.7457C73.1488 18.4139 72.8664 18.9995 72.5151 19.5024C72.1706 19.9984 71.7504 20.3842 71.2544 20.6597C70.7584 20.9353 70.1797 21.0731 69.5184 21.0731C68.8226 21.0731 68.2026 20.9318 67.6583 20.6494C67.121 20.3669 66.6663 19.9708 66.2943 19.461C65.9292 18.9513 65.6502 18.3519 65.4573 17.663C65.2644 16.9741 65.168 16.2232 65.168 15.4103ZM68.144 15.1933V15.4103C68.144 15.8719 68.1785 16.3025 68.2473 16.702C68.3231 17.1016 68.4437 17.4564 68.609 17.7664C68.7812 18.0695 69.0017 18.3071 69.2704 18.4794C69.5459 18.6447 69.88 18.7274 70.2727 18.7274C70.7825 18.7274 71.2027 18.6137 71.5334 18.3864C71.8641 18.1521 72.1155 17.8318 72.2877 17.4254C72.4668 17.0189 72.5702 16.5505 72.5977 16.02V14.6663C72.5771 14.2323 72.5151 13.8431 72.4117 13.4987C72.3153 13.1473 72.1706 12.8476 71.9777 12.5996C71.7917 12.3516 71.5575 12.1588 71.275 12.021C70.9995 11.8832 70.6723 11.8143 70.2934 11.8143C69.9076 11.8143 69.5769 11.9039 69.3014 12.083C69.0258 12.2552 68.8019 12.4929 68.6297 12.796C68.4644 13.0991 68.3403 13.4573 68.2577 13.8707C68.1819 14.2771 68.144 14.718 68.144 15.1933ZM87.9739 21.0731C87.1059 21.0731 86.3274 20.9353 85.6385 20.6597C84.9496 20.3773 84.3641 19.9881 83.8818 19.492C83.4065 18.996 83.0414 18.4208 82.7865 17.7664C82.5316 17.105 82.4042 16.4023 82.4042 15.6583V15.245C82.4042 14.3977 82.5247 13.6227 82.7658 12.92C83.0069 12.2173 83.3514 11.6076 83.7992 11.091C84.2538 10.5743 84.805 10.1782 85.4525 9.90262C86.1001 9.62017 86.8303 9.47895 87.6432 9.47895C88.4354 9.47895 89.1381 9.60984 89.7512 9.87162C90.3643 10.1334 90.8776 10.5054 91.2909 10.9876C91.7111 11.4699 92.028 12.0485 92.2416 12.7236C92.4551 13.3919 92.5619 14.1359 92.5619 14.9557V16.1957H83.6752V14.2117H89.6376V13.9843C89.6376 13.571 89.5618 13.2024 89.4102 12.8786C89.2656 12.548 89.0451 12.2862 88.7489 12.0933C88.4527 11.9004 88.0738 11.804 87.6122 11.804C87.2195 11.804 86.882 11.8901 86.5995 12.0623C86.3171 12.2345 86.0863 12.4756 85.9072 12.7856C85.735 13.0957 85.6041 13.4608 85.5145 13.881C85.4319 14.2943 85.3905 14.749 85.3905 15.245V15.6583C85.3905 16.1061 85.4525 16.5195 85.5765 16.8984C85.7074 17.2772 85.89 17.6045 86.1242 17.88C86.3653 18.1556 86.6546 18.3691 86.9922 18.5207C87.3366 18.6723 87.7259 18.748 88.1599 18.748C88.6972 18.748 89.1967 18.6447 89.6582 18.438C90.1267 18.2245 90.5297 17.9041 90.8672 17.477L92.3139 19.0477C92.0797 19.3853 91.7594 19.709 91.3529 20.0191C90.9534 20.3291 90.4711 20.5839 89.9062 20.7837C89.3413 20.9766 88.6972 21.0731 87.9739 21.0731ZM96.654 9.68562L98.5036 13.0853L100.405 9.68562H103.577L100.415 15.152L103.722 20.8664H100.539L98.5243 17.2704L96.5093 20.8664H93.3266L96.6333 15.152L93.4713 9.68562H96.654ZM108 11.835V25.1651H105.024V9.68562H107.783L108 11.835ZM115.078 15.152V15.369C115.078 16.1819 114.982 16.9362 114.789 17.632C114.603 18.3278 114.328 18.934 113.962 19.4507C113.597 19.9605 113.143 20.3601 112.598 20.6494C112.061 20.9318 111.441 21.0731 110.738 21.0731C110.056 21.0731 109.464 20.9353 108.961 20.6597C108.458 20.3842 108.035 19.9984 107.69 19.5024C107.353 18.9995 107.08 18.4174 106.874 17.756C106.667 17.0947 106.509 16.3851 106.398 15.6273V15.059C106.509 14.2461 106.667 13.5021 106.874 12.827C107.08 12.145 107.353 11.556 107.69 11.06C108.035 10.5571 108.455 10.1678 108.951 9.89229C109.454 9.61673 110.043 9.47895 110.718 9.47895C111.427 9.47895 112.051 9.61328 112.588 9.88195C113.132 10.1506 113.587 10.5364 113.952 11.0393C114.324 11.5422 114.603 12.1415 114.789 12.8373C114.982 13.5331 115.078 14.3047 115.078 15.152ZM112.092 15.369V15.152C112.092 14.6767 112.051 14.2392 111.968 13.8397C111.892 13.4332 111.768 13.0784 111.596 12.7753C111.431 12.4722 111.21 12.238 110.935 12.0726C110.666 11.9004 110.339 11.8143 109.953 11.8143C109.547 11.8143 109.199 11.8797 108.909 12.0106C108.627 12.1415 108.396 12.331 108.217 12.579C108.038 12.827 107.904 13.1232 107.814 13.4677C107.725 13.8121 107.669 14.2013 107.649 14.6353V16.0717C107.683 16.5815 107.78 17.0396 107.938 17.446C108.097 17.8456 108.341 18.1625 108.672 18.3967C109.002 18.6309 109.436 18.748 109.974 18.748C110.366 18.748 110.697 18.6619 110.966 18.4897C111.234 18.3106 111.451 18.066 111.617 17.756C111.789 17.446 111.91 17.0878 111.978 16.6814C112.054 16.2749 112.092 15.8375 112.092 15.369ZM120.07 4.99424V20.8664H117.083V4.99424H120.07ZM122.054 15.3897V15.1727C122.054 14.3529 122.171 13.5985 122.405 12.9096C122.639 12.2139 122.98 11.6111 123.428 11.1013C123.876 10.5915 124.427 10.1954 125.081 9.91295C125.736 9.62362 126.487 9.47895 127.334 9.47895C128.181 9.47895 128.936 9.62362 129.597 9.91295C130.258 10.1954 130.813 10.5915 131.261 11.1013C131.715 11.6111 132.06 12.2139 132.294 12.9096C132.528 13.5985 132.645 14.3529 132.645 15.1727V15.3897C132.645 16.2026 132.528 16.9569 132.294 17.6527C132.06 18.3416 131.715 18.9444 131.261 19.461C130.813 19.9708 130.262 20.3669 129.607 20.6494C128.953 20.9318 128.202 21.0731 127.355 21.0731C126.507 21.0731 125.753 20.9318 125.092 20.6494C124.437 20.3669 123.883 19.9708 123.428 19.461C122.98 18.9444 122.639 18.3416 122.405 17.6527C122.171 16.9569 122.054 16.2026 122.054 15.3897ZM125.03 15.1727V15.3897C125.03 15.8581 125.071 16.2956 125.154 16.702C125.236 17.1085 125.367 17.4667 125.546 17.7767C125.732 18.0798 125.973 18.3175 126.27 18.4897C126.566 18.6619 126.927 18.748 127.355 18.748C127.768 18.748 128.123 18.6619 128.419 18.4897C128.715 18.3175 128.953 18.0798 129.132 17.7767C129.311 17.4667 129.442 17.1085 129.525 16.702C129.614 16.2956 129.659 15.8581 129.659 15.3897V15.1727C129.659 14.718 129.614 14.2909 129.525 13.8913C129.442 13.4849 129.308 13.1267 129.122 12.8166C128.943 12.4998 128.705 12.2518 128.409 12.0726C128.112 11.8935 127.754 11.804 127.334 11.804C126.914 11.804 126.555 11.8935 126.259 12.0726C125.97 12.2518 125.732 12.4998 125.546 12.8166C125.367 13.1267 125.236 13.4849 125.154 13.8913C125.071 14.2909 125.03 14.718 125.03 15.1727ZM137.45 12.1243V20.8664H134.474V9.68562H137.275L137.45 12.1243ZM140.819 9.61328L140.767 12.3723C140.623 12.3516 140.447 12.3344 140.24 12.3206C140.041 12.3 139.858 12.2896 139.693 12.2896C139.272 12.2896 138.907 12.3448 138.597 12.455C138.294 12.5583 138.039 12.7133 137.833 12.92C137.633 13.1267 137.481 13.3781 137.378 13.6743C137.282 13.9705 137.226 14.3081 137.213 14.687L136.613 14.501C136.613 13.7777 136.686 13.1129 136.83 12.5066C136.975 11.8935 137.185 11.3596 137.461 10.905C137.743 10.4503 138.088 10.099 138.494 9.85095C138.9 9.60295 139.365 9.47895 139.889 9.47895C140.054 9.47895 140.223 9.49273 140.395 9.52028C140.568 9.54095 140.709 9.57195 140.819 9.61328ZM147.164 21.0731C146.296 21.0731 145.517 20.9353 144.828 20.6597C144.14 20.3773 143.554 19.9881 143.072 19.492C142.596 18.996 142.231 18.4208 141.976 17.7664C141.722 17.105 141.594 16.4023 141.594 15.6583V15.245C141.594 14.3977 141.715 13.6227 141.956 12.92C142.197 12.2173 142.541 11.6076 142.989 11.091C143.444 10.5743 143.995 10.1782 144.642 9.90262C145.29 9.62017 146.02 9.47895 146.833 9.47895C147.625 9.47895 148.328 9.60984 148.941 9.87162C149.554 10.1334 150.067 10.5054 150.481 10.9876C150.901 11.4699 151.218 12.0485 151.432 12.7236C151.645 13.3919 151.752 14.1359 151.752 14.9557V16.1957H142.865V14.2117H148.827V13.9843C148.827 13.571 148.752 13.2024 148.6 12.8786C148.455 12.548 148.235 12.2862 147.939 12.0933C147.643 11.9004 147.264 11.804 146.802 11.804C146.409 11.804 146.072 11.8901 145.789 12.0623C145.507 12.2345 145.276 12.4756 145.097 12.7856C144.925 13.0957 144.794 13.4608 144.704 13.881C144.622 14.2943 144.58 14.749 144.58 15.245V15.6583C144.58 16.1061 144.642 16.5195 144.766 16.8984C144.897 17.2772 145.08 17.6045 145.314 17.88C145.555 18.1556 145.845 18.3691 146.182 18.5207C146.527 18.6723 146.916 18.748 147.35 18.748C147.887 18.748 148.387 18.6447 148.848 18.438C149.317 18.2245 149.72 17.9041 150.057 17.477L151.504 19.0477C151.27 19.3853 150.949 19.709 150.543 20.0191C150.143 20.3291 149.661 20.5839 149.096 20.7837C148.531 20.9766 147.887 21.0731 147.164 21.0731ZM156.423 12.1243V20.8664H153.447V9.68562H156.247L156.423 12.1243ZM159.791 9.61328L159.74 12.3723C159.595 12.3516 159.419 12.3344 159.213 12.3206C159.013 12.3 158.83 12.2896 158.665 12.2896C158.245 12.2896 157.88 12.3448 157.57 12.455C157.266 12.5583 157.012 12.7133 156.805 12.92C156.605 13.1267 156.454 13.3781 156.35 13.6743C156.254 13.9705 156.199 14.3081 156.185 14.687L155.586 14.501C155.586 13.7777 155.658 13.1129 155.803 12.5066C155.947 11.8935 156.157 11.3596 156.433 10.905C156.715 10.4503 157.06 10.099 157.466 9.85095C157.873 9.60295 158.338 9.47895 158.861 9.47895C159.027 9.47895 159.195 9.49273 159.368 9.52028C159.54 9.54095 159.681 9.57195 159.791 9.61328Z" fill="white"/>
<path d="M173.564 16.7824V13.5187C173.564 13.2687 173.514 13.0519 173.412 12.8683C173.314 12.6808 173.166 12.5363 172.967 12.4348C172.768 12.3332 172.521 12.2824 172.229 12.2824C171.955 12.2824 171.715 12.3293 171.508 12.423C171.305 12.5168 171.145 12.6398 171.027 12.7922C170.914 12.9445 170.857 13.1086 170.857 13.2844H169.773C169.773 13.0578 169.832 12.8332 169.949 12.6105C170.066 12.3879 170.234 12.1867 170.453 12.007C170.676 11.8234 170.941 11.6789 171.25 11.5734C171.562 11.4641 171.91 11.4094 172.293 11.4094C172.754 11.4094 173.16 11.4875 173.512 11.6437C173.867 11.8 174.145 12.0363 174.344 12.3527C174.547 12.6652 174.648 13.0578 174.648 13.5305V16.4836C174.648 16.6945 174.666 16.9191 174.701 17.1574C174.74 17.3957 174.797 17.6008 174.871 17.7726V17.8664H173.74C173.686 17.7414 173.643 17.5754 173.611 17.3683C173.58 17.1574 173.564 16.9621 173.564 16.7824ZM173.752 14.0226L173.764 14.7844H172.668C172.359 14.7844 172.084 14.8098 171.842 14.8605C171.6 14.9074 171.396 14.9797 171.232 15.0773C171.068 15.175 170.943 15.298 170.857 15.4465C170.771 15.591 170.729 15.7609 170.729 15.9562C170.729 16.1555 170.773 16.3371 170.863 16.5012C170.953 16.6652 171.088 16.7961 171.268 16.8937C171.451 16.9875 171.676 17.0344 171.941 17.0344C172.273 17.0344 172.566 16.9641 172.82 16.8234C173.074 16.6828 173.275 16.5109 173.424 16.3078C173.576 16.1047 173.658 15.9074 173.67 15.716L174.133 16.2375C174.105 16.4016 174.031 16.5832 173.91 16.7824C173.789 16.9816 173.627 17.173 173.424 17.3566C173.225 17.5363 172.986 17.6867 172.709 17.8078C172.436 17.925 172.127 17.9836 171.783 17.9836C171.354 17.9836 170.977 17.8996 170.652 17.7316C170.332 17.5637 170.082 17.3391 169.902 17.0578C169.727 16.7726 169.639 16.4543 169.639 16.1027C169.639 15.7629 169.705 15.4641 169.838 15.2062C169.971 14.9445 170.162 14.7277 170.412 14.5558C170.662 14.3801 170.963 14.2473 171.314 14.1574C171.666 14.0676 172.059 14.0226 172.492 14.0226H173.752ZM180.35 16.6359V8.86639H181.439V17.8664H180.443L180.35 16.6359ZM176.084 14.7668V14.6437C176.084 14.1594 176.143 13.7199 176.26 13.3254C176.381 12.9269 176.551 12.5851 176.77 12.3C176.992 12.0148 177.256 11.7961 177.561 11.6437C177.869 11.4875 178.213 11.4094 178.592 11.4094C178.99 11.4094 179.338 11.4797 179.635 11.6203C179.936 11.757 180.189 11.9582 180.396 12.2238C180.607 12.4855 180.773 12.8019 180.895 13.173C181.016 13.5441 181.1 13.9641 181.146 14.4328V14.9719C181.104 15.4367 181.02 15.8547 180.895 16.2258C180.773 16.5969 180.607 16.9133 180.396 17.175C180.189 17.4367 179.936 17.6379 179.635 17.7785C179.334 17.9152 178.982 17.9836 178.58 17.9836C178.209 17.9836 177.869 17.9035 177.561 17.7433C177.256 17.5832 176.992 17.3586 176.77 17.0695C176.551 16.7805 176.381 16.4406 176.26 16.05C176.143 15.6555 176.084 15.2277 176.084 14.7668ZM177.174 14.6437V14.7668C177.174 15.0832 177.205 15.3801 177.268 15.6574C177.334 15.9348 177.436 16.1789 177.572 16.3898C177.709 16.6008 177.883 16.7668 178.094 16.8879C178.305 17.0051 178.557 17.0637 178.85 17.0637C179.209 17.0637 179.504 16.9875 179.734 16.8351C179.969 16.6828 180.156 16.4816 180.297 16.2316C180.438 15.9816 180.547 15.7101 180.625 15.4172V14.0051C180.578 13.7902 180.51 13.5832 180.42 13.384C180.334 13.1808 180.221 13.0012 180.08 12.8449C179.943 12.6848 179.773 12.5578 179.57 12.4641C179.371 12.3703 179.135 12.3234 178.861 12.3234C178.564 12.3234 178.309 12.3859 178.094 12.5109C177.883 12.632 177.709 12.8 177.572 13.0148C177.436 13.2258 177.334 13.4719 177.268 13.7531C177.205 14.0305 177.174 14.3273 177.174 14.6437ZM184.205 12.7863V17.8664H183.115V11.5266H184.146L184.205 12.7863ZM183.982 14.4562L183.479 14.4387C183.482 14.0051 183.539 13.6047 183.648 13.2375C183.758 12.8664 183.92 12.5441 184.135 12.2707C184.35 11.9973 184.617 11.7863 184.938 11.6379C185.258 11.4855 185.629 11.4094 186.051 11.4094C186.348 11.4094 186.621 11.4523 186.871 11.5383C187.121 11.6203 187.338 11.7512 187.521 11.9308C187.705 12.1105 187.848 12.341 187.949 12.6223C188.051 12.9035 188.102 13.2433 188.102 13.6418V17.8664H187.018V13.6945C187.018 13.3625 186.961 13.0969 186.848 12.8976C186.738 12.6984 186.582 12.5539 186.379 12.4641C186.176 12.3703 185.938 12.3234 185.664 12.3234C185.344 12.3234 185.076 12.3801 184.861 12.4933C184.646 12.6066 184.475 12.7629 184.346 12.9621C184.217 13.1613 184.123 13.3898 184.064 13.6476C184.01 13.9016 183.982 14.1711 183.982 14.4562ZM188.09 13.8586L187.363 14.0812C187.367 13.7336 187.424 13.3996 187.533 13.0793C187.646 12.759 187.809 12.4738 188.02 12.2238C188.234 11.9738 188.498 11.7766 188.811 11.632C189.123 11.4836 189.48 11.4094 189.883 11.4094C190.223 11.4094 190.523 11.4543 190.785 11.5441C191.051 11.634 191.273 11.7726 191.453 11.9601C191.637 12.1437 191.775 12.3801 191.869 12.6691C191.963 12.9582 192.01 13.3019 192.01 13.7004V17.8664H190.92V13.6887C190.92 13.3332 190.863 13.0578 190.75 12.8625C190.641 12.6633 190.484 12.5246 190.281 12.4465C190.082 12.3644 189.844 12.3234 189.566 12.3234C189.328 12.3234 189.117 12.3644 188.934 12.4465C188.75 12.5285 188.596 12.6418 188.471 12.7863C188.346 12.9269 188.25 13.0891 188.184 13.2726C188.121 13.4562 188.09 13.6516 188.09 13.8586ZM194.828 11.5266V17.8664H193.738V11.5266H194.828ZM193.656 9.84491C193.656 9.66913 193.709 9.52069 193.814 9.3996C193.924 9.2785 194.084 9.21796 194.295 9.21796C194.502 9.21796 194.66 9.2785 194.77 9.3996C194.883 9.52069 194.939 9.66913 194.939 9.84491C194.939 10.0129 194.883 10.1574 194.77 10.2785C194.66 10.3957 194.502 10.4543 194.295 10.4543C194.084 10.4543 193.924 10.3957 193.814 10.2785C193.709 10.1574 193.656 10.0129 193.656 9.84491ZM197.652 12.8801V17.8664H196.568V11.5266H197.594L197.652 12.8801ZM197.395 14.4562L196.943 14.4387C196.947 14.0051 197.012 13.6047 197.137 13.2375C197.262 12.8664 197.438 12.5441 197.664 12.2707C197.891 11.9973 198.16 11.7863 198.473 11.6379C198.789 11.4855 199.139 11.4094 199.521 11.4094C199.834 11.4094 200.115 11.4523 200.365 11.5383C200.615 11.6203 200.828 11.7531 201.004 11.9367C201.184 12.1203 201.32 12.3586 201.414 12.6516C201.508 12.9406 201.555 13.2941 201.555 13.7121V17.8664H200.465V13.7004C200.465 13.3683 200.416 13.1027 200.318 12.9035C200.221 12.7004 200.078 12.5539 199.891 12.4641C199.703 12.3703 199.473 12.3234 199.199 12.3234C198.93 12.3234 198.684 12.3801 198.461 12.4933C198.242 12.6066 198.053 12.7629 197.893 12.9621C197.736 13.1613 197.613 13.3898 197.523 13.6476C197.438 13.9016 197.395 14.1711 197.395 14.4562Z" fill="#82F3FF"/>
</svg>
